# xmcd CD database file
#
# Track frame offsets:
#	150
#	23314
#	53788
#	77706
#	107293
#	143153
#	168110
#	186784
#	220680
#	236705
#	260728
#
# Disc length: 3729 seconds
#
# Revision: 0
# Processed by: cddbd v1.4PL0 Copyright (c) Steve Scherf et al.
# Submitted via: CDex 1.50
#
DISCID=850e8f0b
DTITLE=Rick Gallagher - Sweet Potato Eyebrows
DYEAR=2001
DGENRE=Jazz
TTITLE0=They can't take that away from me
TTITLE1=The night before
TTITLE2=Sweet potato eyebrows
TTITLE3=Adyn Rebekah
TTITLE4=I got it bad (and that ain't good)
TTITLE5=Graze amazing
TTITLE6=People of the world
TTITLE7=Everything is good (olivia's song)
TTITLE8=My heart is with you
TTITLE9=Grumblin'
TTITLE10=Barefoot Sunday
EXTD=YEAR: 2001
EXTT0=
EXTT1=
EXTT2=
EXTT3=
EXTT4=
EXTT5=
EXTT6=
EXTT7=
EXTT8=
EXTT9=
EXTT10=
PLAYORDER=
